<?xml version="1.0" encoding="UTF-8" standalone="no"?>
<!-- Created with Inkscape (http://www.inkscape.org/) -->

<svg
   xmlns:dc="http://purl.org/dc/elements/1.1/"
   xmlns:cc="http://creativecommons.org/ns#"
   xmlns:rdf="http://www.w3.org/1999/02/22-rdf-syntax-ns#"
   xmlns:svg="http://www.w3.org/2000/svg"
   xmlns="http://www.w3.org/2000/svg"
   xmlns:sodipodi="http://sodipodi.sourceforge.net/DTD/sodipodi-0.dtd"
   xmlns:inkscape="http://www.inkscape.org/namespaces/inkscape"
   version="1.1"
   id="svg819"
   inkscape:version="0.92.2 5c3e80d, 2017-08-06"
   sodipodi:docname="BoxRight.svg"
   width="154.86861mm"
   height="120.00044mm">
  <sodipodi:namedview
     pagecolor="#ffffff"
     bordercolor="#666666"
     borderopacity="1"
     objecttolerance="10"
     gridtolerance="10"
     guidetolerance="10"
     inkscape:pageopacity="0"
     inkscape:pageshadow="2"
     inkscape:window-width="1280"
     inkscape:window-height="755"
     id="namedview821"
     inkscape:zoom="0.82791145"
     inkscape:cx="359.35352"
     inkscape:cy="276.1934"
     inkscape:window-x="-1"
     inkscape:window-y="284"
     inkscape:window-maximized="0"
     inkscape:current-layer="layer1"
     fit-margin-top="0"
     fit-margin-left="0"
     fit-margin-right="0"
     fit-margin-bottom="0"
     units="mm"
     inkscape:document-units="mm"
     showgrid="false"
     showguides="true"
     inkscape:guide-bbox="true" />
  <metadata
     id="metadata825">
    <rdf:RDF>
      <cc:Work
         rdf:about="">
        <dc:format>image/svg+xml</dc:format>
        <dc:type
           rdf:resource="http://purl.org/dc/dcmitype/StillImage" />
        <dc:title></dc:title>
      </cc:Work>
    </rdf:RDF>
  </metadata>
  <defs
     id="defs823" />
  <g
     inkscape:groupmode="layer"
     id="layer3"
     inkscape:label="Support1"
     style="display:none"
     transform="translate(-50.372047,-85.565406)">
    <g
       id="g955"
       transform="translate(0,-14.551487)">
      <path
         inkscape:connector-curvature="0"
         id="path934"
         d="m 160.46055,420.74023 a 44.976379,44.976379 0 0 0 -16.06445,34.39258 44.976379,44.976379 0 0 0 16.06641,34.39453 h 57.89062 a 44.976379,44.976379 0 0 0 15.99609,-34.39453 44.976379,44.976379 0 0 0 -15.99609,-34.39258 z"
         style="opacity:1;fill:none;fill-opacity:0.98104266;stroke:#000000;stroke-width:0.75590551;stroke-miterlimit:4;stroke-dasharray:none;stroke-dashoffset:0.57139313;stroke-opacity:1" />
      <path
         id="path945"
         d="M 160.95312,416.98438 A 47.622047,47.622047 0 0 0 141.75,455.13281 47.622047,47.622047 0 0 0 160.95312,493.2832 h 56.82813 a 47.622047,47.622047 0 0 0 19.21289,-38.15039 47.622047,47.622047 0 0 0 -19.21484,-38.14843 z"
         style="opacity:1;fill:none;fill-opacity:0.98104266;stroke:#000000;stroke-width:0.75590551;stroke-miterlimit:4;stroke-dasharray:none;stroke-dashoffset:0.57139313;stroke-opacity:1"
         inkscape:connector-curvature="0" />
    </g>
    <circle
       style="opacity:1;fill:none;fill-opacity:0.98104266;stroke:#000000;stroke-width:0.75590551;stroke-miterlimit:4;stroke-dasharray:none;stroke-dashoffset:0.57139313;stroke-opacity:1"
       id="path957"
       cx="189.37265"
       cy="189.55482"
       r="42.141731" />
    <circle
       style="opacity:1;fill:none;fill-opacity:0.98104266;stroke:#000000;stroke-width:0.75590551;stroke-miterlimit:4;stroke-dasharray:none;stroke-dashoffset:0.57139313;stroke-opacity:1"
       id="path830"
       cx="389.67337"
       cy="281.26382"
       r="27.968504" />
    <circle
       r="8.6929131"
       cy="281.26382"
       cx="389.67337"
       id="circle844"
       style="opacity:1;fill:none;fill-opacity:0.98104266;stroke:#000000;stroke-width:0.75590551;stroke-miterlimit:4;stroke-dasharray:none;stroke-dashoffset:0.57139313;stroke-opacity:1" />
    <circle
       transform="rotate(76.38292)"
       r="5.2913384"
       cy="-495.492"
       cx="462.95914"
       id="circle846"
       style="display:inline;opacity:1;fill:none;fill-opacity:0.98104266;stroke:#000000;stroke-width:0.75590551;stroke-miterlimit:4;stroke-dasharray:none;stroke-dashoffset:0.57139313;stroke-opacity:1" />
    <path
       style="opacity:1;fill:none;fill-opacity:0.98104266;stroke:#000000;stroke-width:0.75590551;stroke-miterlimit:4;stroke-dasharray:none;stroke-dashoffset:0.57139313;stroke-opacity:1"
       d="M 69.648438,85.943359 C 59.179146,85.943359 50.75,94.372505 50.75,104.8418 v 414.99218 c 0,10.4693 8.429146,18.89844 18.898438,18.89844 H 501.86527 c 0,0 21.11813,-0.51824 30.08586,-9.48598 9.01159,-9.0116 7.96098,-28.74698 7.96098,-28.74698 0,0 -0.87574,-56.08677 8.75437,-79.33503 6.53703,-15.78117 16.10505,-23.96136 27.48196,-32.39099 13.04077,-9.66246 31.35156,-7.60874 43.41027,-18.47208 10.98283,-9.89411 15.55999,-21.52272 15.76165,-36.30362 0.18402,-13.48892 -6.25045,-29.31766 -15.6895,-35.81415 -14.35727,-9.88149 -28.60193,-8.62024 -44.03721,-16.71512 -19.4548,-10.20288 -41.8591,-32.20744 -50.74215,-52.29922 -13.10661,-29.6447 -11.51166,-83.17706 -11.51166,-83.17706 v -36.98692 c 0,0 1.59236,-13.14222 -3.41634,-19.218528 -2.40672,-2.919715 -7.93502,-3.843383 -7.93502,-3.843383 z"
       id="rect849"
       inkscape:connector-curvature="0"
       sodipodi:nodetypes="sssscscsssssssccscs" />
    <circle
       style="display:inline;opacity:1;fill:none;fill-opacity:0.98104266;stroke:#000000;stroke-width:0.75590551;stroke-miterlimit:4;stroke-dasharray:none;stroke-dashoffset:0.57139313;stroke-opacity:1"
       id="circle946"
       cx="77.775116"
       cy="511.70682"
       r="8.1259842" />
    <circle
       r="8.1259842"
       cy="109.18715"
       cx="77.775116"
       id="circle948"
       style="display:inline;opacity:1;fill:none;fill-opacity:0.98104266;stroke:#000000;stroke-width:0.75590551;stroke-miterlimit:4;stroke-dasharray:none;stroke-dashoffset:0.57139313;stroke-opacity:1" />
    <circle
       r="8.1259842"
       cy="511.70682"
       cx="476.51529"
       id="circle950"
       style="display:inline;opacity:1;fill:none;fill-opacity:0.98104266;stroke:#000000;stroke-width:0.75590551;stroke-miterlimit:4;stroke-dasharray:none;stroke-dashoffset:0.57139313;stroke-opacity:1" />
    <circle
       style="display:inline;opacity:1;fill:none;fill-opacity:0.98104266;stroke:#000000;stroke-width:0.75590551;stroke-miterlimit:4;stroke-dasharray:none;stroke-dashoffset:0.57139313;stroke-opacity:1"
       id="circle952"
       cx="476.51529"
       cy="112.96667"
       r="8.1259842" />
  </g>
  <g
     inkscape:groupmode="layer"
     id="layer1"
     inkscape:label="Box">
    <rect
       transform="translate(-50.372047,-85.565406)"
       style="display:inline;opacity:1;fill:none;fill-opacity:0.98104266;stroke:#000000;stroke-width:0.75590551;stroke-miterlimit:4;stroke-dasharray:none;stroke-dashoffset:0.57139313;stroke-opacity:1"
       id="rect828"
       width="626.64569"
       height="475.46457"
       x="39.411419"
       y="74.606445" />
    <circle
       style="display:inline;opacity:1;fill:none;fill-opacity:0.98104266;stroke:#000000;stroke-width:0.75590551;stroke-miterlimit:4;stroke-dasharray:none;stroke-dashoffset:0.57139313;stroke-opacity:1"
       id="circle852"
       cx="139.00061"
       cy="103.98942"
       r="37.417324" />
  </g>
</svg>
