<?xml version="1.0" encoding="UTF-8" standalone="no"?>
<!-- Created with Inkscape (http://www.inkscape.org/) -->

<svg
   xmlns:dc="http://purl.org/dc/elements/1.1/"
   xmlns:cc="http://creativecommons.org/ns#"
   xmlns:rdf="http://www.w3.org/1999/02/22-rdf-syntax-ns#"
   xmlns:svg="http://www.w3.org/2000/svg"
   xmlns="http://www.w3.org/2000/svg"
   xmlns:sodipodi="http://sodipodi.sourceforge.net/DTD/sodipodi-0.dtd"
   xmlns:inkscape="http://www.inkscape.org/namespaces/inkscape"
   version="1.1"
   id="svg819"
   inkscape:version="0.92.2 5c3e80d, 2017-08-06"
   sodipodi:docname="ChargeKey.svg"
   width="100.00063mm"
   height="40.054192mm">
  <sodipodi:namedview
     pagecolor="#ffffff"
     bordercolor="#666666"
     borderopacity="1"
     objecttolerance="10"
     gridtolerance="10"
     guidetolerance="10"
     inkscape:pageopacity="0"
     inkscape:pageshadow="2"
     inkscape:window-width="1280"
     inkscape:window-height="755"
     id="namedview821"
     inkscape:zoom="1.9129255"
     inkscape:cx="188.97756"
     inkscape:cy="75.692955"
     inkscape:window-x="-1"
     inkscape:window-y="284"
     inkscape:window-maximized="0"
     inkscape:current-layer="layer3"
     fit-margin-top="0"
     fit-margin-left="0"
     fit-margin-right="0"
     fit-margin-bottom="0"
     units="mm"
     inkscape:document-units="mm"
     showgrid="false"
     showguides="true"
     inkscape:guide-bbox="true">
    <sodipodi:guide
       position="426.35876,-34.961664"
       orientation="1,0"
       id="guide965"
       inkscape:locked="false" />
    <sodipodi:guide
       position="500.39696,102.75416"
       orientation="1,0"
       id="guide971"
       inkscape:locked="false" />
    <sodipodi:guide
       position="543.10121,127.3091"
       orientation="1,0"
       id="guide975"
       inkscape:locked="false" />
  </sodipodi:namedview>
  <metadata
     id="metadata825">
    <rdf:RDF>
      <cc:Work
         rdf:about="">
        <dc:format>image/svg+xml</dc:format>
        <dc:type
           rdf:resource="http://purl.org/dc/dcmitype/StillImage" />
        <dc:title></dc:title>
      </cc:Work>
    </rdf:RDF>
  </metadata>
  <defs
     id="defs823" />
  <g
     inkscape:groupmode="layer"
     id="layer3"
     inkscape:label="Key"
     transform="translate(-76.110434,-298.44968)">
    <path
       style="opacity:1;fill:none;fill-opacity:0.98104266;stroke:#000000;stroke-width:0.75590551;stroke-miterlimit:4;stroke-dasharray:none;stroke-dashoffset:0.57139313;stroke-opacity:1"
       d="m 339.70957,213.74141 c -1.94382,0.55805 -3.81687,0.74018 -5.69199,1.27617 -3.94038,0.78539 -7.81149,1.88526 -11.57617,3.28906 -74.81285,21.03354 -93.50009,21.55136 -176.41797,-0.91992 -2.95056,-1.00765 -5.96093,-1.83085 -9.01367,-2.46484 -1.84626,-0.50778 -2.25029,-0.53699 -4.21207,-0.8785 -0.35213,-0.11629 -6.61807,-0.39001 -6.68051,-0.40666 -1.30795,-0.10001 -2.6183,-0.16579 -3.92969,-0.19727 -41.538999,-1.6e-4 -75.213051,33.67389 -75.212891,75.21289 -1.6e-4,41.539 33.673892,75.21305 75.212891,75.21289 1.71839,-0.002 3.43619,-0.0636 5.15039,-0.18359 1.21934,0.28226 2.6249,0.2356 4.25195,-0.21484 0.66429,-0.18391 1.23005,-0.33421 1.88672,-0.51563 5.79542,-0.87515 11.46868,-2.42473 16.9043,-4.61719 78.13909,-20.98295 98.0506,-20.39533 168.82031,-0.63281 5.88152,2.50874 12.05895,4.25721 18.38281,5.20313 0.68343,0.19595 1.28234,0.36375 1.97461,0.5625 1.80995,0.51961 3.35307,0.54971 4.66016,0.16015 1.57783,0.12932 3.15935,0.20878 4.74219,0.23828 41.539,1.6e-4 75.21305,-33.67389 75.21289,-75.21289 1.6e-4,-41.539 -33.67389,-75.21305 -75.21289,-75.21289 -1.33044,0.0116 -2.50935,-0.24346 -3.8373,-0.16133 z"
       transform="translate(29.513778,85.566376)"
       id="path827"
       inkscape:connector-curvature="0"
       sodipodi:nodetypes="ccccccccccccccccccccccc" />
    <circle
       r="37.417324"
       cy="374.21823"
       cx="151.70102"
       id="circle840"
       style="opacity:1;fill:none;fill-opacity:0.98104266;stroke:#000000;stroke-width:0.75590551;stroke-miterlimit:4;stroke-dasharray:none;stroke-dashoffset:0.57139313;stroke-opacity:1" />
    <circle
       style="opacity:1;fill:none;fill-opacity:0.98104266;stroke:#000000;stroke-width:0.75590551;stroke-miterlimit:4;stroke-dasharray:none;stroke-dashoffset:0.57139313;stroke-opacity:1"
       id="circle842"
       cx="378.47433"
       cy="374.21823"
       r="37.417324" />
  </g>
</svg>
